<?xml version="1.0" encoding="UTF-8"?>
<svg version="1.1" xmlns="http://www.w3.org/2000/svg" width="500" height="100">
<path d="M0 0 C165 0 330 0 500 0 C500 33 500 66 500 100 C335 100 170 100 0 100 C0 67 0 34 0 0 Z " fill="#FDFDFE" transform="translate(0,0)"/>
<path d="M0 0 C17.82 0 35.64 0 54 0 C54 15.84 54 31.68 54 48 C36.18 48 18.36 48 0 48 C0 32.16 0 16.32 0 0 Z " fill="#0E55C2" transform="translate(14,25)"/>
<path d="M0 0 C5.15625 -0.061875 10.3125 -0.12375 15.625 -0.1875 C17.24100098 -0.21481201 18.85700195 -0.24212402 20.52197266 -0.27026367 C22.44855713 -0.28150269 22.44855713 -0.28150269 24.4140625 -0.29296875 C25.7232666 -0.3086792 27.0324707 -0.32438965 28.38134766 -0.34057617 C33.6671268 0.15690473 36.87300171 2.04450145 40.875 5.4375 C43.85387244 9.26198784 43.51678891 13.43187679 43.46875 18.09765625 C42.93474755 21.40402143 41.97823221 23.31293985 40 26 C38.01811655 27.36011609 36.02048131 28.69791204 34 30 C34 30.66 34 31.32 34 32 C34.60714844 32.58394531 35.21429688 33.16789062 35.83984375 33.76953125 C41.74397059 39.86583582 46 52.48710505 46 61 C42.04 61 38.08 61 34 61 C33.31164062 58.92138672 33.31164062 58.92138672 32.609375 56.80078125 C31.9901225 54.97117159 31.37030083 53.1417545 30.75 51.3125 C30.44964844 50.40048828 30.14929688 49.48847656 29.83984375 48.54882812 C27.62190153 41.48952884 27.62190153 41.48952884 23 36 C19.37 35.67 15.74 35.34 12 35 C12 43.58 12 52.16 12 61 C8.04 61 4.08 61 0 61 C0 40.87 0 20.74 0 0 Z " fill="#054EAE" transform="translate(263,17)"/>
<path d="M0 0 C29 0 29 0 38 4 C42.68575614 8.68575614 45.0254506 12.72744042 45.375 19.3125 C45.22496162 24.94831666 43.36613899 29.31337533 39.64453125 33.5390625 C32.11551294 40.44234471 22.49767331 39.16810041 13 39 C13 46.59 13 54.18 13 62 C8.71 62 4.42 62 0 62 C0 41.54 0 21.08 0 0 Z " fill="#0D53B1" transform="translate(81,16)"/>
<path d="M0 0 C5.80563876 2.6692592 9.10271971 7.00634544 12.2265625 12.5 C14.75249408 20.60956981 13.89789466 28.02737541 10.75390625 35.859375 C8.69528604 39.62851055 6.02147372 42.04204601 2.4140625 44.3125 C1.84171875 44.68375 1.269375 45.055 0.6796875 45.4375 C-5.24837437 47.72695838 -14.35027857 47.45062422 -20.2734375 45.3671875 C-26.49105137 41.62248824 -29.97735066 36.65862681 -32.04296875 29.765625 C-33.82082697 21.73328713 -32.79429399 14.42867132 -28.5859375 7.3125 C-21.00598065 -1.19956291 -10.89798307 -2.89734897 0 0 Z " fill="#064EAF" transform="translate(165.5859375,31.6875)"/>
<path d="M0 0 C1.29550781 -0.02578125 2.59101563 -0.0515625 3.92578125 -0.078125 C9.08841304 0.37219802 12.20780361 1.72597194 15.82250977 5.44897461 C18.07689803 8.83483618 18.22309042 10.82357525 18.296875 14.86328125 C18.32910156 16.11044922 18.36132812 17.35761719 18.39453125 18.64257812 C18.40871094 19.93615234 18.42289062 21.22972656 18.4375 22.5625 C18.46714844 23.87541016 18.49679687 25.18832031 18.52734375 26.54101562 C18.59795589 29.77740535 18.65069877 33.01307811 18.6875 36.25 C20.3375 36.58 21.9875 36.91 23.6875 37.25 C23.71439216 38.72906892 23.73384621 40.20827483 23.75 41.6875 C23.76160156 42.51121094 23.77320313 43.33492187 23.78515625 44.18359375 C23.6875 46.25 23.6875 46.25 22.6875 47.25 C18.04576646 47.83501187 14.66694454 47.84965992 10.625 45.375 C8.6875 43.25 8.6875 43.25 8.6875 41.25 C7.759375 42.054375 6.83125 42.85875 5.875 43.6875 C1.41117529 47.55614808 -2.85804371 47.58811997 -8.578125 47.53515625 C-12.39534654 47.13707458 -14.51624696 45.83115665 -17.3125 43.25 C-20.22869827 38.59820968 -19.94347648 33.55808962 -19.3125 28.25 C-16.6659578 23.36407593 -12.63466677 21.3293827 -7.42041016 19.63525391 C-5.43295333 19.07856946 -3.44025069 18.56124702 -1.4375 18.0625 C-0.74914062 17.88525391 -0.06078125 17.70800781 0.6484375 17.52539062 C2.32657979 17.09420129 4.00683172 16.6712362 5.6875 16.25 C5.730221 14.58388095 5.72813832 12.91617115 5.6875 11.25 C4.49441862 9.83799171 4.49441862 9.83799171 1.0625 10 C-3.26334016 10.04651441 -6.4322824 11.3098912 -10.3125 13.25 C-11.116875 13.641875 -11.92125 14.03375 -12.75 14.4375 C-13.265625 14.705625 -13.78125 14.97375 -14.3125 15.25 C-15.6325 13.27 -16.9525 11.29 -18.3125 9.25 C-16.80614535 5.03220697 -14.07237578 3.4752326 -10.3125 1.25 C-6.73937005 0.05895668 -3.76696678 0.04471177 0 0 Z " fill="#064EAE" transform="translate(433.3125,30.75)"/>
<path d="M0 0 C1.29550781 -0.02578125 2.59101563 -0.0515625 3.92578125 -0.078125 C9.08841304 0.37219802 12.20780361 1.72597194 15.82250977 5.44897461 C18.07689803 8.83483618 18.22309042 10.82357525 18.296875 14.86328125 C18.32910156 16.11044922 18.36132812 17.35761719 18.39453125 18.64257812 C18.40871094 19.93615234 18.42289062 21.22972656 18.4375 22.5625 C18.46714844 23.87541016 18.49679687 25.18832031 18.52734375 26.54101562 C18.59795589 29.77740535 18.65069877 33.01307811 18.6875 36.25 C20.3375 36.58 21.9875 36.91 23.6875 37.25 C23.71439216 38.72906892 23.73384621 40.20827483 23.75 41.6875 C23.76160156 42.51121094 23.77320313 43.33492187 23.78515625 44.18359375 C23.6875 46.25 23.6875 46.25 22.6875 47.25 C18.04576646 47.83501187 14.66694454 47.84965992 10.625 45.375 C8.6875 43.25 8.6875 43.25 8.6875 41.25 C7.759375 42.054375 6.83125 42.85875 5.875 43.6875 C1.41117529 47.55614808 -2.85804371 47.58811997 -8.578125 47.53515625 C-12.39534654 47.13707458 -14.51624696 45.83115665 -17.3125 43.25 C-20.22869827 38.59820968 -19.94347648 33.55808962 -19.3125 28.25 C-16.6659578 23.36407593 -12.63466677 21.3293827 -7.42041016 19.63525391 C-5.43295333 19.07856946 -3.44025069 18.56124702 -1.4375 18.0625 C-0.74914062 17.88525391 -0.06078125 17.70800781 0.6484375 17.52539062 C2.32657979 17.09420129 4.00683172 16.6712362 5.6875 16.25 C5.730221 14.58388095 5.72813832 12.91617115 5.6875 11.25 C4.49441862 9.83799171 4.49441862 9.83799171 1.0625 10 C-3.26334016 10.04651441 -6.4322824 11.3098912 -10.3125 13.25 C-11.116875 13.641875 -11.92125 14.03375 -12.75 14.4375 C-13.265625 14.705625 -13.78125 14.97375 -14.3125 15.25 C-15.6325 13.27 -16.9525 11.29 -18.3125 9.25 C-16.80614535 5.03220697 -14.07237578 3.4752326 -10.3125 1.25 C-6.73937005 0.05895668 -3.76696678 0.04471177 0 0 Z " fill="#064EAE" transform="translate(335.3125,30.75)"/>
<path d="M0 0 C3.96 0 7.92 0 12 0 C12.32798584 0.90355225 12.65597168 1.80710449 12.99389648 2.73803711 C14.20804209 6.08053673 15.42584524 9.42169371 16.64477539 12.76245117 C17.17247265 14.21032763 17.69916861 15.65856943 18.22485352 17.10717773 C18.97932068 19.18569567 19.73734369 21.26288606 20.49609375 23.33984375 C20.73154404 23.99089584 20.96699432 24.64194794 21.20957947 25.31272888 C22.19210434 28.39660126 22.19210434 28.39660126 24 31 C27.63 20.77 31.26 10.54 35 0 C38.96 0 42.92 0 47 0 C43.94794041 9.2831042 40.59787484 18.44521933 37.21240234 27.61108398 C36.48731332 29.579113 35.76595816 31.54852171 35.04833984 33.51928711 C34.00186074 36.39243927 32.94360304 39.2610118 31.8828125 42.12890625 C31.56804962 42.99995499 31.25328674 43.87100372 30.9289856 44.76844788 C27.83808209 53.04919797 24.27280109 59.78255574 17 65 C13.76127868 66.07957377 11.33971795 66.13326784 7.9375 66.125 C6.87402344 66.12757812 5.81054688 66.13015625 4.71484375 66.1328125 C2 66 2 66 0 65 C0.33 61.7 0.66 58.4 1 55 C3.47395833 55.06510417 5.94791667 55.13020833 8.421875 55.1953125 C11.17990095 54.98637114 12.69903523 54.51063339 15 53 C17.27517244 50.23919338 17.27517244 50.23919338 16.84985352 47.40307617 C15.73773823 42.9498228 14.11466728 38.80377191 12.40234375 34.55078125 C12.04862198 33.65634811 11.69490021 32.76191498 11.33045959 31.84037781 C10.20505777 28.99549777 9.07211054 26.15371879 7.9375 23.3125 C6.79961437 20.46045944 5.66354049 17.60777604 4.53382874 14.75248718 C3.83201581 12.97875588 3.12548761 11.20688158 2.4138031 9.43708801 C2.09669876 8.63582993 1.77959442 7.83457184 1.45288086 7.0090332 C1.17165878 6.30543167 0.89043671 5.60183014 0.60069275 4.87690735 C0 3 0 3 0 0 Z " fill="#074FAF" transform="translate(362,31)"/>
<path d="M0 0 C0.33 0 0.66 0 1 0 C1.33 6.27 1.66 12.54 2 19 C2.99 16.36 3.98 13.72 5 11 C9.88183435 6.11816565 14.8185415 6.64475296 21.375 6.3125 C22.32117188 6.25255859 23.26734375 6.19261719 24.2421875 6.13085938 C33.32763692 5.66510249 33.32763692 5.66510249 37 8 C37.495 9.485 37.495 9.485 38 11 C38.99 11.33 39.98 11.66 41 12 C41.73046875 14.06640625 41.73046875 14.06640625 42.1875 16.5625 C42.34605469 17.38878906 42.50460938 18.21507813 42.66796875 19.06640625 C42.77753906 19.70449219 42.88710938 20.34257813 43 21 C44.32 21 45.64 21 47 21 C46.67 22.32 46.34 23.64 46 25 C42.7 25.66 39.4 26.32 36 27 C35.67 28.32 35.34 29.64 35 31 C32.69 31 30.38 31 28 31 C28 30.34 28 29.68 28 29 C25.69 29 23.38 29 21 29 C21 29.66 21 30.32 21 31 C19.35 31 17.7 31 16 31 C18.27415287 34.37088267 18.27415287 34.37088267 22 36 C22 36.66 22 37.32 22 38 C26.62 38 31.24 38 36 38 C36 38.66 36 39.32 36 40 C31.59085217 41.10228696 27.51617599 41.07654536 23 41 C22.67 41.99 22.34 42.98 22 44 C20.02 44 18.04 44 16 44 C16 43.34 16 42.68 16 42 C14.68 42 13.36 42 12 42 C7.82639178 37.71937618 5.22056951 33.15291122 2 28 C1.67 34.6 1.34 41.2 1 48 C0.67 48 0.34 48 0 48 C0 32.16 0 16.32 0 0 Z " fill="#1167D9" transform="translate(14,25)"/>
<path d="M0 0 C1.85625 0.0309375 1.85625 0.0309375 3.75 0.0625 C3.75 3.3625 3.75 6.6625 3.75 10.0625 C8.04 10.0625 12.33 10.0625 16.75 10.0625 C16.75 13.3625 16.75 16.6625 16.75 20.0625 C12.46 20.0625 8.17 20.0625 3.75 20.0625 C3.8903124 24.02110098 4.03698899 27.97928516 4.1875 31.9375 C4.22681641 33.06542969 4.26613281 34.19335938 4.30664062 35.35546875 C4.34853516 36.43183594 4.39042969 37.50820313 4.43359375 38.6171875 C4.47025146 39.61218262 4.50690918 40.60717773 4.54467773 41.63232422 C4.59959532 44.07029501 4.59959532 44.07029501 5.75 46.0625 C9.05 46.0625 12.35 46.0625 15.75 46.0625 C17.60255023 49.76760046 18.2683213 51.12325811 17.75 55.0625 C14.10603999 57.49180667 12.21087919 57.36124985 7.875 57.375 C6.66070312 57.39175781 5.44640625 57.40851563 4.1953125 57.42578125 C0.34647256 57.01995119 -1.32051524 56.5798708 -4.25 54.0625 C-9.31109751 47.64184459 -8.72290168 40.36405884 -8.5 32.5625 C-8.48195312 31.35851562 -8.46390625 30.15453125 -8.4453125 28.9140625 C-8.39846554 25.96270395 -8.33288005 23.01302964 -8.25 20.0625 C-10.56 20.0625 -12.87 20.0625 -15.25 20.0625 C-15.25 16.7625 -15.25 13.4625 -15.25 10.0625 C-12.94 10.0625 -10.63 10.0625 -8.25 10.0625 C-8.25 7.0925 -8.25 4.1225 -8.25 1.0625 C-5.12110801 0.280277 -3.1099909 -0.05183318 0 0 Z " fill="#0B51B0" transform="translate(235.25,20.9375)"/>
<path d="M0 0 C3.96 0 7.92 0 12 0 C12 18.15 12 36.3 12 55 C13.98 55 15.96 55 18 55 C18.33 58.3 18.66 61.6 19 65 C8.11593304 65.6249225 8.11593304 65.6249225 3.875 63.25 C0.55955085 59.27146102 -0.24998218 56.49597214 -0.22705078 51.31347656 C-0.22689972 50.17259583 -0.22674866 49.03171509 -0.22659302 47.85626221 C-0.21627045 46.63010193 -0.20594788 45.40394165 -0.1953125 44.140625 C-0.1924826 42.88111023 -0.18965271 41.62159546 -0.18673706 40.32391357 C-0.17744121 36.98326098 -0.15948583 33.64288331 -0.1373291 30.30230713 C-0.11683208 26.89036428 -0.10772712 23.47839298 -0.09765625 20.06640625 C-0.07559904 13.37751852 -0.04107045 6.68879693 0 0 Z " fill="#0950AF" transform="translate(465,13)"/>
<path d="M0 0 C3.96 0 7.92 0 12 0 C12.33 1.98 12.66 3.96 13 6 C13.928125 4.7934375 13.928125 4.7934375 14.875 3.5625 C17 1 17 1 19 0 C20.51845202 -0.09472912 22.04110384 -0.1298841 23.5625 -0.125 C24.77099609 -0.12886719 24.77099609 -0.12886719 26.00390625 -0.1328125 C28 0 28 0 29 1 C28.91036938 2.69141656 28.75422324 4.37959602 28.5625 6.0625 C28.46066406 6.98160156 28.35882813 7.90070312 28.25390625 8.84765625 C28.17011719 9.55792969 28.08632812 10.26820312 28 11 C27.32453125 11.02578125 26.6490625 11.0515625 25.953125 11.078125 C20.30476784 11.34485997 20.30476784 11.34485997 15.4375 13.9375 C12.87392502 17.61567279 12.82001361 20.05669572 12.68359375 24.5390625 C12.64169922 25.84101562 12.59980469 27.14296875 12.55664062 28.484375 C12.51682701 29.86458045 12.47711478 31.24478883 12.4375 32.625 C12.39430593 34.01303415 12.35069135 35.40105528 12.30664062 36.7890625 C12.20028 40.19260256 12.09825286 43.59621778 12 47 C10.18757948 47.02687279 8.37504767 47.04633715 6.5625 47.0625 C5.55316406 47.07410156 4.54382813 47.08570313 3.50390625 47.09765625 C1 47 1 47 0 46 C-0.09295815 44.55710213 -0.11746513 43.10970215 -0.11352539 41.66381836 C-0.11344986 40.7429393 -0.11337433 39.82206024 -0.11329651 38.87327576 C-0.10813522 37.87224319 -0.10297394 36.87121063 -0.09765625 35.83984375 C-0.0962413 34.82024063 -0.09482635 33.80063751 -0.09336853 32.75013733 C-0.08775097 29.47922893 -0.0751955 26.20838787 -0.0625 22.9375 C-0.05748726 20.72591244 -0.05292396 18.51432382 -0.04882812 16.30273438 C-0.03777583 10.86846346 -0.02049944 5.43424316 0 0 Z " fill="#0E54B1" transform="translate(189,31)"/>
<path d="M0 0 C17.16 0 34.32 0 52 0 C52 6.6 52 13.2 52 20 C50.35 19.01 48.7 18.02 47 17 C47 16.01 47 15.02 47 14 C46.2678125 13.72542969 45.535625 13.45085938 44.78125 13.16796875 C42 12 42 12 39.84375 10.67578125 C33.27769259 6.85652452 27.51969375 6.64663311 20.125 7 C19.20912109 7.04165283 18.29324219 7.08330566 17.34960938 7.1262207 C12.5822673 7.4607941 8.7549578 7.77000717 5 11 C3.57298182 13.2236698 3.57298182 13.2236698 2.6875 15.6875 C2.19830078 16.89986328 2.19830078 16.89986328 1.69921875 18.13671875 C1.35310547 19.05904297 1.35310547 19.05904297 1 20 C0.67 20 0.34 20 0 20 C0 13.4 0 6.8 0 0 Z " fill="#001245" transform="translate(15,25)"/>
<path d="M0 0 C3.52399685 2.96336099 4.51053362 5.42461389 5.0859375 9.9609375 C5.17724165 16.33396729 4.56900778 20.14560713 0.75 25.3125 C-2.94394639 27.15947319 -7.21750487 26.78883033 -11.25 26.3125 C-14.35478708 24.13914905 -15.78846035 21.75755775 -17.25 18.3125 C-18.17924245 11.25674048 -17.6017826 5.99399396 -13.25 0.3125 C-8.99738385 -2.94783905 -4.56521239 -2.37039874 0 0 Z " fill="#F5F8FC" transform="translate(162.25,41.6875)"/>
<path d="M0 0 C1.56197295 2.34295943 3.10846459 4.69014198 4.625 7.0625 C5.07101563 7.75472656 5.51703125 8.44695313 5.9765625 9.16015625 C7 11 7 11 7 13 C8.32 13.66 9.64 14.32 11 15 C11 15.66 11 16.32 11 17 C14.3 17.33 17.6 17.66 21 18 C21.33 17.34 21.66 16.68 22 16 C24.31 16 26.62 16 29 16 C29.33 16.99 29.66 17.98 30 19 C35.1693489 18.59443869 35.1693489 18.59443869 40 17 C40.65555119 14.47266765 40.65555119 14.47266765 41 12 C41.66 12 42.32 12 43 12 C43 11.01 43 10.02 43 9 C45.9826906 7.47551369 48.818202 6.06059933 52 5 C52 10.94 52 16.88 52 23 C34.84 23 17.68 23 0 23 C0 15.41 0 7.82 0 0 Z " fill="#1F3458" transform="translate(15,50)"/>
<path d="M0 0 C13.13846154 -0.49115744 13.13846154 -0.49115744 16.92578125 1.66796875 C19.45606029 4.51274575 19.6226799 5.80542807 19.5 9.5625 C19.4896875 10.51253906 19.479375 11.46257813 19.46875 12.44140625 C18.93419659 15.35917697 18.35829602 16.25908808 16 18 C10.83608171 19.7213061 5.40708764 19.05353552 0 19 C0 12.73 0 6.46 0 0 Z " fill="#FCFDFE" transform="translate(94,26)"/>
<path d="M0 0 C0.33 0 0.66 0 1 0 C1.33 6.27 1.66 12.54 2 19 C2.99 16.36 3.98 13.72 5 11 C9.88183435 6.11816565 14.8185415 6.64475296 21.375 6.3125 C22.32117188 6.25255859 23.26734375 6.19261719 24.2421875 6.13085938 C32.84037652 5.69008143 32.84037652 5.69008143 37 8 C37 8.33 37 8.66 37 9 C36.07058594 8.96519531 35.14117187 8.93039063 34.18359375 8.89453125 C27.25067033 8.74271541 22.13868472 8.72603482 16 12 C15.01 12 14.02 12 13 12 C13 13.65 13 15.3 13 17 C12.01 17 11.02 17 10 17 C10.33 19.64 10.66 22.28 11 25 C10.01 25 9.02 25 8 25 C8 26.65 8 28.3 8 30 C9.32 30 10.64 30 12 30 C11.125 34.75 11.125 34.75 10 37 C10.66 37 11.32 37 12 37 C11.67 37.99 11.34 38.98 11 40 C6.84569383 36.30728341 5.194051 33.1104816 2 28 C1.67 34.6 1.34 41.2 1 48 C0.67 48 0.34 48 0 48 C0 32.16 0 16.32 0 0 Z " fill="#224C9B" transform="translate(14,25)"/>
<path d="M0 0 C2.206875 -0.061875 4.41375 -0.12375 6.6875 -0.1875 C8.54955078 -0.23970703 8.54955078 -0.23970703 10.44921875 -0.29296875 C14.21666932 0.01787701 16.02794917 0.7227143 19 3 C20.42662219 5.85324437 20.31033868 7.83454549 20 11 C18.49609375 13.6796875 18.49609375 13.6796875 16 16 C12.99011679 16.37774639 10.7166237 16.48153413 7.75 16.3125 C5.1925 16.209375 2.635 16.10625 0 16 C0 10.72 0 5.44 0 0 Z " fill="#FAFCFD" transform="translate(275,26)"/>
<path d="M0 0 C0.99 0 1.98 0 3 0 C4.65 3.96 6.3 7.92 8 12 C7.01 12 6.02 12 5 12 C5 11.34 5 10.68 5 10 C2.69 10 0.38 10 -2 10 C-2 10.66 -2 11.32 -2 12 C-3.65 12 -5.3 12 -7 12 C-4.72584713 15.37088267 -4.72584713 15.37088267 -1 17 C-1 17.66 -1 18.32 -1 19 C3.62 19 8.24 19 13 19 C13 19.66 13 20.32 13 21 C8.59085217 22.10228696 4.51617599 22.07654536 0 22 C-0.33 22.99 -0.66 23.98 -1 25 C-2.98 25 -4.96 25 -7 25 C-7 24.34 -7 23.68 -7 23 C-8.32 23 -9.64 23 -11 23 C-11 21.35 -11 19.7 -11 18 C-11.66 18 -12.32 18 -13 18 C-12.34 15.69 -11.68 13.38 -11 11 C-12.32 11 -13.64 11 -15 11 C-15 9.68 -15 8.36 -15 7 C-13.948125 7.495 -13.948125 7.495 -12.875 8 C-9.73996884 9.09044562 -7.29436818 9.15322643 -4 9 C-2.68 6.03 -1.36 3.06 0 0 Z " fill="#1DB9E0" transform="translate(37,44)"/>
<path d="M0 0 C0.33 0 0.66 0 1 0 C1 15.84 1 31.68 1 48 C0.67 48 0.34 48 0 48 C0 42.06 0 36.12 0 30 C-1.98 31.32 -3.96 32.64 -6 34 C-6.99 34 -7.98 34 -9 34 C-9.33 34.99 -9.66 35.98 -10 37 C-10 36.34 -10 35.68 -10 35 C-10.99 34.67 -11.98 34.34 -13 34 C-10.82779123 29.55634449 -8.62471619 25.1995459 -6 21 C-7.32 21 -8.64 21 -10 21 C-11.49821059 17.62902617 -12 15.79557881 -12 12 C-13.32 11.67 -14.64 11.34 -16 11 C-16 10.34 -16 9.68 -16 9 C-11.97488434 10.21689543 -8.40742883 11.49453762 -5 14 C-5 14.99 -5 15.98 -5 17 C-3.68 17.66 -2.36 18.32 -1 19 C-0.67 12.73 -0.34 6.46 0 0 Z " fill="#42629A" transform="translate(67,25)"/>
<path d="M0 0 C0 0.66 0 1.32 0 2 C0.8353125 2.061875 0.8353125 2.061875 1.6875 2.125 C5.29795126 3.49111669 6.85718075 5.87760624 9 9 C8.8125 11.375 8.8125 11.375 8 13 C6 11.6875 6 11.6875 4 10 C4 9.01 4 8.02 4 7 C3.2678125 6.72542969 2.535625 6.45085938 1.78125 6.16796875 C-1 5 -1 5 -3.15625 3.67578125 C-9.72230741 -0.14347548 -15.48030625 -0.35336689 -22.875 0 C-23.79087891 0.04165283 -24.70675781 0.08330566 -25.65039062 0.1262207 C-30.4177327 0.4607941 -34.2450422 0.77000717 -38 4 C-39.42701818 6.2236698 -39.42701818 6.2236698 -40.3125 8.6875 C-40.80169922 9.89986328 -40.80169922 9.89986328 -41.30078125 11.13671875 C-41.64689453 12.05904297 -41.64689453 12.05904297 -42 13 C-42.33 13 -42.66 13 -43 13 C-43.02694851 11.04174127 -43.04637218 9.08337774 -43.0625 7.125 C-43.07410156 6.03445312 -43.08570313 4.94390625 -43.09765625 3.8203125 C-43 1 -43 1 -42 -1 C-29.53580844 -6.78694608 -12.42201106 -5.24191247 0 0 Z " fill="#012765" transform="translate(58,32)"/>
<path d="M0 0 C0.66 0 1.32 0 2 0 C2 5.61 2 11.22 2 17 C-7.9 17 -17.8 17 -28 17 C-27.505 15.515 -27.505 15.515 -27 14 C-25.78763672 14.03480469 -25.78763672 14.03480469 -24.55078125 14.0703125 C-23.48214844 14.08835937 -22.41351563 14.10640625 -21.3125 14.125 C-20.25675781 14.14820312 -19.20101562 14.17140625 -18.11328125 14.1953125 C-14.9350979 13.99592835 -12.79972457 13.50130158 -10 12 C-9.10613836 9.45224694 -9.10613836 9.45224694 -9 7 C-8.34 7 -7.68 7 -7 7 C-7 6.01 -7 5.02 -7 4 C-6.030625 3.525625 -5.06125 3.05125 -4.0625 2.5625 C-1.19522563 1.29806053 -1.19522563 1.29806053 0 0 Z " fill="#011139" transform="translate(65,55)"/>
<path d="M0 0 C1.2684375 0.309375 1.2684375 0.309375 2.5625 0.625 C2.8925 1.285 3.2225 1.945 3.5625 2.625 C4.5525 2.955 5.5425 3.285 6.5625 3.625 C7.29296875 5.69140625 7.29296875 5.69140625 7.75 8.1875 C7.98783203 9.42693359 7.98783203 9.42693359 8.23046875 10.69140625 C8.34003906 11.32949219 8.44960938 11.96757813 8.5625 12.625 C9.8825 12.625 11.2025 12.625 12.5625 12.625 C12.2325 13.945 11.9025 15.265 11.5625 16.625 C8.2625 17.285 4.9625 17.945 1.5625 18.625 C1.2325 19.945 0.9025 21.265 0.5625 22.625 C-0.0975 22.625 -0.7575 22.625 -1.4375 22.625 C-1.57027344 21.72136719 -1.70304687 20.81773438 -1.83984375 19.88671875 C-2.01644531 18.70722656 -2.19304688 17.52773438 -2.375 16.3125 C-2.54902344 15.14074219 -2.72304688 13.96898437 -2.90234375 12.76171875 C-3.35843031 9.60858597 -3.35843031 9.60858597 -4.4375 6.625 C-0.9725 6.13 -0.9725 6.13 2.5625 5.625 C1.43715895 4.26881501 1.43715895 4.26881501 -1.5 4.5625 C-2.9540625 4.5934375 -2.9540625 4.5934375 -4.4375 4.625 C-4.4375 3.965 -4.4375 3.305 -4.4375 2.625 C-7.81768531 1.58494298 -10.9155279 1.54495518 -14.4375 1.625 C-9.85962533 -1.42691645 -5.26504031 -0.57436803 0 0 Z " fill="#1263D7" transform="translate(48.4375,33.375)"/>
<path d="M0 0 C0.61745335 8.98737651 0.61745335 8.98737651 -1.5625 12.5625 C-4.83100126 14.49007767 -7.20579522 15 -11 15 C-13.8879888 13.07467413 -14.80169934 11.88133625 -15.5625 8.5 C-15 6 -15 6 -13 3.8125 C-8.96410558 1.37414712 -4.7897334 0 0 0 Z " fill="#F5F8FB" transform="translate(440,55)"/>
<path d="M0 0 C0.61745335 8.98737651 0.61745335 8.98737651 -1.5625 12.5625 C-4.83100126 14.49007767 -7.20579522 15 -11 15 C-13.8879888 13.07467413 -14.80169934 11.88133625 -15.5625 8.5 C-15 6 -15 6 -13 3.8125 C-8.96410558 1.37414712 -4.7897334 0 0 0 Z " fill="#F5F8FB" transform="translate(342,55)"/>
<path d="M0 0 C-1.32 2.64 -2.64 5.28 -4 8 C-3.34 8.33 -2.68 8.66 -2 9 C-2.0625 12.3125 -2.0625 12.3125 -3 16 C-6.25170935 17.96329621 -8.54209571 19.0767318 -12.375 18.875 C-14 18 -14 18 -15 15 C-14 14 -14 14 -11.4375 13.9375 C-10.633125 13.958125 -9.82875 13.97875 -9 14 C-9 13.34 -9 12.68 -9 12 C-9.66 11.67 -10.32 11.34 -11 11 C-10.01 10.01 -9.02 9.02 -8 8 C-8.66 7.67 -9.32 7.34 -10 7 C-10 5.02 -10 3.04 -10 1 C-3.375 -1.125 -3.375 -1.125 0 0 Z " fill="#146BD4" transform="translate(59,51)"/>
<path d="M0 0 C17.16 0 34.32 0 52 0 C52 3.96 52 7.92 52 12 C51.01 11.01 50.02 10.02 49 9 C49 8.01 49 7.02 49 6 C48.0925 5.87625 47.185 5.7525 46.25 5.625 C43.41029677 5.07890323 41.47409409 4.42736197 39 3 C39 2.34 39 1.68 39 1 C34.5203666 1.11083072 30.04150251 1.24123188 25.5625 1.375 C24.30244141 1.4059375 23.04238281 1.436875 21.74414062 1.46875 C10.56231416 1.67517674 10.56231416 1.67517674 0 5 C0 3.35 0 1.7 0 0 Z " fill="#000B2C" transform="translate(15,25)"/>
<path d="M0 0 C0 0.66 0 1.32 0 2 C-0.99 2.33 -1.98 2.66 -3 3 C-1.35 3.33 0.3 3.66 2 4 C2 4.33 2 4.66 2 5 C-0.31 5.33 -2.62 5.66 -5 6 C-5.33 6.99 -5.66 7.98 -6 9 C-3.36 9.33 -0.72 9.66 2 10 C1.45276317 13.37462715 0.9451 15.08235 -1 18 C-4.97475764 18.61829563 -6.5419102 18.31867116 -9.875 16 C-10.57625 15.34 -11.2775 14.68 -12 14 C-11.01 14 -10.02 14 -9 14 C-9.33 11.36 -9.66 8.72 -10 6 C-9.01 6 -8.02 6 -7 6 C-7 4.35 -7 2.7 -7 1 C-2.25 0 -2.25 0 0 0 Z " fill="#1685E1" transform="translate(34,36)"/>
<path d="M0 0 C-1.3125 1.5 -1.3125 1.5 -3 3 C-3.99 3 -4.98 3 -6 3 C-6 4.65 -6 6.3 -6 8 C-6.99 8 -7.98 8 -9 8 C-8.67 10.64 -8.34 13.28 -8 16 C-8.99 16 -9.98 16 -11 16 C-11 17.65 -11 19.3 -11 21 C-12.32 20.34 -13.64 19.68 -15 19 C-14.35483871 7.74304783 -14.35483871 7.74304783 -11 3 C-7.25196445 0.55562899 -4.46437201 -0.39391518 0 0 Z " fill="#023AB0" transform="translate(33,34)"/>
<path d="M0 0 C0.99 0.495 0.99 0.495 2 1 C2.268125 1.9075 2.53625 2.815 2.8125 3.75 C4.2246775 7.61490685 5.8231601 9.41420008 9 12 C11.67790896 12.87238858 11.67790896 12.87238858 14 13 C14 13.99 14 14.98 14 16 C9.38 16 4.76 16 0 16 C0 10.72 0 5.44 0 0 Z " fill="#011A48" transform="translate(15,56)"/>
<path d="M0 0 C1.52947266 0.00966797 1.52947266 0.00966797 3.08984375 0.01953125 C5.84624048 0.17528034 8.37628395 0.56912614 11.0625 1.1875 C7.86708559 4.38291441 3.42098817 3.5837414 -0.90820312 3.66601562 C-5.39931542 3.83635383 -8.4322881 4.29858909 -11.9375 7.1875 C-13.36451818 9.4111698 -13.36451818 9.4111698 -14.25 11.875 C-14.73919922 13.08736328 -14.73919922 13.08736328 -15.23828125 14.32421875 C-15.46902344 14.93910156 -15.69976563 15.55398437 -15.9375 16.1875 C-16.2675 16.1875 -16.5975 16.1875 -16.9375 16.1875 C-17.30023648 13.18196918 -17.54032198 11.10201324 -16.9375 8.1875 C-12.50736574 2.57355576 -7.05756015 -0.09789806 0 0 Z " fill="#01247C" transform="translate(31.9375,28.8125)"/>
<path d="M0 0 C0.99 0 1.98 0 3 0 C4.65 3.96 6.3 7.92 8 12 C7.01 12 6.02 12 5 12 C5 11.34 5 10.68 5 10 C2.69 10 0.38 10 -2 10 C-2 10.66 -2 11.32 -2 12 C-2.99 11.67 -3.98 11.34 -5 11 C-3.35 7.37 -1.7 3.74 0 0 Z " fill="#13BFEB" transform="translate(37,44)"/>
<path d="M0 0 C16.74650992 -0.58192506 16.74650992 -0.58192506 22 3 C24.04306753 6.00075543 25.16699801 7.73081516 24.6875 11.375 C24.460625 11.91125 24.23375 12.4475 24 13 C22.79557292 11.47005208 21.59114583 9.94010417 20.38671875 8.41015625 C18.94316909 6.72844923 18.94316909 6.72844923 16 6 C16 5.34 16 4.68 16 4 C12.40288072 3.27005441 8.79939671 2.59025242 5.1875 1.9375 C4.21167969 1.76089844 3.23585937 1.58429687 2.23046875 1.40234375 C1.49441406 1.26957031 0.75835937 1.13679688 0 1 C0 0.67 0 0.34 0 0 Z " fill="#011D4B" transform="translate(42,28)"/>
<path d="M0 0 C2.59094622 0.35012787 4.5774211 0.73770965 6.8125 2.125 C8.7234142 5.14223295 8.43341637 7.53266903 8 11 C6.125 12.9375 6.125 12.9375 4 14 C3.34 14 2.68 14 2 14 C1.67 15.32 1.34 16.64 1 18 C0.01 17.67 -0.98 17.34 -2 17 C0.17220877 12.55634449 2.37528381 8.1995459 5 4 C3.68 4 2.36 4 1 4 C0.67 2.68 0.34 1.36 0 0 Z " fill="#053EA7" transform="translate(56,42)"/>
<path d="M0 0 C2.31 0 4.62 0 7 0 C7 0.66 7 1.32 7 2 C6.01 2.495 6.01 2.495 5 3 C5.33 3.66 5.66 4.32 6 5 C4.68 5 3.36 5 2 5 C2 5.66 2 6.32 2 7 C4.31 7 6.62 7 9 7 C8.67 7.99 8.34 8.98 8 10 C5.69 9.67 3.38 9.34 1 9 C1 8.34 1 7.68 1 7 C0.38125 6.9175 -0.2375 6.835 -0.875 6.75 C-3 6 -3 6 -4.25 3.9375 C-4.62125 2.9784375 -4.62125 2.9784375 -5 2 C-3.35 2 -1.7 2 0 2 C0 1.34 0 0.68 0 0 Z " fill="#126DD1" transform="translate(35,54)"/>
<path d="M0 0 C0.33 0.66 0.66 1.32 1 2 C2.66666667 2.33333333 4.33333333 2.66666667 6 3 C8.02237052 3.95394836 10.0282696 4.94535351 12 6 C11.67 7.32 11.34 8.64 11 10 C9.02 10 7.04 10 5 10 C5 9.34 5 8.68 5 8 C3.68 8 2.36 8 1 8 C1 6.35 1 4.7 1 3 C0.34 3 -0.32 3 -1 3 C-0.67 2.01 -0.34 1.02 0 0 Z " fill="#1A97D5" transform="translate(25,59)"/>
<path d="M0 0 C1.56197295 2.34295943 3.10846459 4.69014198 4.625 7.0625 C5.07101563 7.75472656 5.51703125 8.44695313 5.9765625 9.16015625 C7 11 7 11 7 13 C7.61875 13.2475 8.2375 13.495 8.875 13.75 C11.35068687 15.20628639 11.95125002 16.37812506 13 19 C8.45749511 18.73279383 6.26444298 16.87641802 3.29296875 13.67578125 C0.04450146 9.4655321 -0.24546765 5.15482075 0 0 Z " fill="#012965" transform="translate(15,50)"/>
<path d="M0 0 C0.66 0 1.32 0 2 0 C2.25 2.8125 2.25 2.8125 2 6 C-0.93316569 9.28514558 -4.83562902 9.95890726 -9 11 C-9 9.68 -9 8.36 -9 7 C-8.34 7 -7.68 7 -7 7 C-7 6.01 -7 5.02 -7 4 C-5.5459375 3.2884375 -5.5459375 3.2884375 -4.0625 2.5625 C-1.19522563 1.29806053 -1.19522563 1.29806053 0 0 Z " fill="#011A53" transform="translate(65,55)"/>
<path d="M0 0 C-0.0625 3.3125 -0.0625 3.3125 -1 7 C-4.25170935 8.96329621 -6.54209571 10.0767318 -10.375 9.875 C-12 9 -12 9 -13 6 C-11.41727399 4.41727399 -9.61965997 4.65264253 -7.4375 4.4375 C-6.19806641 4.31181641 -6.19806641 4.31181641 -4.93359375 4.18359375 C-3.97646484 4.09271484 -3.97646484 4.09271484 -3 4 C-3 3.34 -3 2.68 -3 2 C-3.66 1.67 -4.32 1.34 -5 1 C-2 0 -2 0 0 0 Z " fill="#186ABD" transform="translate(57,60)"/>
<path d="M0 0 C0 0.33 0 0.66 0 1 C-1.62808594 1.03867187 -1.62808594 1.03867187 -3.2890625 1.078125 C-4.73441349 1.13443738 -6.17972444 1.191784 -7.625 1.25 C-8.33785156 1.26417969 -9.05070312 1.27835938 -9.78515625 1.29296875 C-14.94094672 1.5294729 -17.82528235 2.75845453 -22 6 C-23.66026356 7.01059521 -25.32470102 8.01453001 -27 9 C-26.67 7.02 -26.34 5.04 -26 3 C-17.40490715 -0.75058597 -9.19378855 -0.28499689 0 0 Z " fill="#001962" transform="translate(42,28)"/>
<path d="M0 0 C0.66 0 1.32 0 2 0 C2 1.98 2 3.96 2 6 C6.17762205 5.53581977 8.17682961 5.09204376 11 2 C11.99 2 12.98 2 14 2 C13.67 3.32 13.34 4.64 13 6 C9.7 6.66 6.4 7.32 3 8 C2.67 9.32 2.34 10.64 2 12 C1.34 12 0.68 12 0 12 C0 8.04 0 4.08 0 0 Z " fill="#39D9F1" transform="translate(47,44)"/>
<path d="M0 0 C0.70125 0.309375 1.4025 0.61875 2.125 0.9375 C5.08936657 2.03302678 7.87698108 2.56422992 11 3 C10.67 3.66 10.34 4.32 10 5 C9.34 5 8.68 5 8 5 C8.99 6.65 9.98 8.3 11 10 C8.36 9.34 5.72 8.68 3 8 C3.33 6.68 3.66 5.36 4 4 C2.68 4 1.36 4 0 4 C0 2.68 0 1.36 0 0 Z " fill="#1792D7" transform="translate(22,51)"/>
<path d="M0 0 C4.95 0 9.9 0 15 0 C15 0.99 15 1.98 15 3 C9.72 3 4.44 3 -1 3 C-0.67 2.01 -0.34 1.02 0 0 Z " fill="#07234F" transform="translate(38,69)"/>
<path d="M0 0 C0 0.66 0 1.32 0 2 C-0.99 2.33 -1.98 2.66 -3 3 C-1.35 3.33 0.3 3.66 2 4 C2 4.33 2 4.66 2 5 C-0.31 5.33 -2.62 5.66 -5 6 C-5.33 6.99 -5.66 7.98 -6 9 C-5.01 9.33 -4.02 9.66 -3 10 C-4.98 10 -6.96 10 -9 10 C-9.33 8.68 -9.66 7.36 -10 6 C-9.01 6 -8.02 6 -7 6 C-7 4.35 -7 2.7 -7 1 C-2.25 0 -2.25 0 0 0 Z " fill="#20A7E4" transform="translate(34,36)"/>
<path d="M0 0 C0 1.65 0 3.3 0 5 C-3.96 5 -7.92 5 -12 5 C-9.76121784 0.52243569 -4.63674314 -0.40912439 0 0 Z " fill="#00081F" transform="translate(67,67)"/>
<path d="M0 0 C0.99 0.99 1.98 1.98 3 3 C3 3.99 3 4.98 3 6 C3.721875 5.95875 4.44375 5.9175 5.1875 5.875 C8.20729369 6.00921305 10.26935729 6.75170619 13 8 C13 8.33 13 8.66 13 9 C8.71 9 4.42 9 0 9 C0 6.03 0 3.06 0 0 Z " fill="#010B28" transform="translate(15,63)"/>
<path d="M0 0 C1.98 0 3.96 0 6 0 C5.67 1.98 5.34 3.96 5 6 C4.01 6.33 3.02 6.66 2 7 C1.67 6.34 1.34 5.68 1 5 C0.01 5 -0.98 5 -2 5 C-2 4.01 -2 3.02 -2 2 C-1.34 2 -0.68 2 0 2 C0 1.34 0 0.68 0 0 Z " fill="#0F63DF" transform="translate(29,47)"/>
<path d="M0 0 C-3.24992446 0.05819424 -6.49971435 0.09366116 -9.75 0.125 C-10.67039062 0.14175781 -11.59078125 0.15851562 -12.5390625 0.17578125 C-13.87324219 0.18544922 -13.87324219 0.18544922 -15.234375 0.1953125 C-16.45979004 0.21102295 -16.45979004 0.21102295 -17.70996094 0.22705078 C-20.21887518 -0.02170084 -21.83395625 -0.74299871 -24 -2 C-5.50152718 -3.66768479 -5.50152718 -3.66768479 0 0 Z " fill="#064097" transform="translate(51,34)"/>
<path d="M0 0 C-0.33 1.32 -0.66 2.64 -1 4 C-2.98 4 -4.96 4 -7 4 C-7 3.34 -7 2.68 -7 2 C-10.38018531 0.95994298 -13.4780279 0.91995518 -17 1 C-11.86103203 -2.42597864 -5.83836516 -1.16767303 0 0 Z " fill="#20BDE4" transform="translate(51,34)"/>
<path d="M0 0 C0 0.99 0 1.98 0 3 C-5.14285714 7 -5.14285714 7 -9 7 C-9.33 7.99 -9.66 8.98 -10 10 C-9.875 7.25 -9.875 7.25 -9 4 C-5.84629002 1.39476132 -4.13351845 0 0 0 Z " fill="#022C80" transform="translate(67,52)"/>
<path d="M0 0 C1.32 0.33 2.64 0.66 4 1 C4.99 4.63 5.98 8.26 7 12 C6.01 11.67 5.02 11.34 4 11 C2.2470538 7.42668659 0.78230674 3.91153372 0 0 Z " fill="#1A88D3" transform="translate(51,36)"/>
<path d="M0 0 C0.99 0 1.98 0 3 0 C3.66 1.98 4.32 3.96 5 6 C4.34 6.66 3.68 7.32 3 8 C2.34 7.01 1.68 6.02 1 5 C0.34 5.66 -0.32 6.32 -1 7 C-1.33 6.34 -1.66 5.68 -2 5 C-1.0625 2.375 -1.0625 2.375 0 0 Z " fill="#4CDFF0" transform="translate(37,44)"/>
<path d="M0 0 C0.763125 0.309375 1.52625 0.61875 2.3125 0.9375 C4.18789677 1.67893593 6.08684652 2.36228217 8 3 C8 3.99 8 4.98 8 6 C5.69 5.34 3.38 4.68 1 4 C0.67 2.68 0.34 1.36 0 0 Z " fill="#126BB6" transform="translate(29,62)"/>
<path d="M0 0 C0.66 0 1.32 0 2 0 C1.875 1.8125 1.875 1.8125 1 4 C-4.03571429 7 -4.03571429 7 -7 7 C-7 6.01 -7 5.02 -7 4 C-6.030625 3.525625 -5.06125 3.05125 -4.0625 2.5625 C-1.19522563 1.29806053 -1.19522563 1.29806053 0 0 Z " fill="#012166" transform="translate(65,55)"/>
<path d="M0 0 C2.1519437 3.22791555 2.20086443 4.28400809 2 8 C1.01 8 0.02 8 -1 8 C-1.33 8.99 -1.66 9.98 -2 11 C-3.14947895 7.44706507 -3.0868937 6.20023331 -1.5625 2.6875 C-1.046875 1.800625 -0.53125 0.91375 0 0 Z " fill="#0559CA" transform="translate(23,42)"/>
<path d="M0 0 C2 0 4 0 6 0 C5 3 5 3 3.125 4.1875 C1 5 1 5 -2 5 C-1.34 3.35 -0.68 1.7 0 0 Z " fill="#1260C7" transform="translate(45,59)"/>
<path d="M0 0 C2.64 0 5.28 0 8 0 C8 0.33 8 0.66 8 1 C6.35 1 4.7 1 3 1 C3 1.66 3 2.32 3 3 C3.66 3.33 4.32 3.66 5 4 C4.34 4 3.68 4 3 4 C3 6.64 3 9.28 3 12 C2.67 12 2.34 12 2 12 C1.93941406 11.38511719 1.87882812 10.77023438 1.81640625 10.13671875 C1.73261719 9.32847656 1.64882813 8.52023438 1.5625 7.6875 C1.48128906 6.88699219 1.40007813 6.08648437 1.31640625 5.26171875 C1.04734307 2.83912821 1.04734307 2.83912821 0 0 Z " fill="#2284DA" transform="translate(44,40)"/>
<path d="M0 0 C0.33 0 0.66 0 1 0 C1.33 2.97 1.66 5.94 2 9 C1.01 8.67 0.02 8.34 -1 8 C-1.33 6.02 -1.66 4.04 -2 2 C-1.34 2 -0.68 2 0 2 C0 1.34 0 0.68 0 0 Z " fill="#106CDB" transform="translate(45,47)"/>
<path d="M0 0 C0.66 0 1.32 0 2 0 C2 1.32 2 2.64 2 4 C0.68 4 -0.64 4 -2 4 C-2.12375 4.804375 -2.2475 5.60875 -2.375 6.4375 C-2.58125 7.283125 -2.7875 8.12875 -3 9 C-3.99 9.495 -3.99 9.495 -5 10 C-4.42415568 7.61435923 -3.77772405 5.33317216 -3 3 C-2.34 3 -1.68 3 -1 3 C-0.67 2.01 -0.34 1.02 0 0 Z " fill="#0342C0" transform="translate(25,38)"/>
<path d="M0 0 C4.50802601 1.25805377 7.4912812 2.90407165 11 6 C7.36029133 6.42820102 5.95430537 5.97413512 2.6875 4.125 C1.800625 3.42375 0.91375 2.7225 0 2 C0 1.34 0 0.68 0 0 Z " fill="#03357D" transform="translate(51,34)"/>
<path d="M0 0 C2.97 0.99 5.94 1.98 9 3 C9 3.33 9 3.66 9 4 C6.03 4 3.06 4 0 4 C0 2.68 0 1.36 0 0 Z " fill="#35CAEB" transform="translate(22,51)"/>
<path d="M0 0 C3.37462715 0.54723683 5.08235 1.0549 8 3 C6.02 3.66 4.04 4.32 2 5 C1.34 3.35 0.68 1.7 0 0 Z " fill="#14548F" transform="translate(27,67)"/>
<path d="M0 0 C0.598125 0.20625 1.19625 0.4125 1.8125 0.625 C1.4825 1.615 1.1525 2.605 0.8125 3.625 C-1.25 4.3125 -1.25 4.3125 -3.1875 4.625 C-3.1875 3.965 -3.1875 3.305 -3.1875 2.625 C-3.8475 2.295 -4.5075 1.965 -5.1875 1.625 C-2.1875 -0.375 -2.1875 -0.375 0 0 Z " fill="#2291D4" transform="translate(53.1875,60.375)"/>
<path d="M0 0 C2.1723491 3.25852365 4.07119658 6.59244728 6 10 C5.01 9.67 4.02 9.34 3 9 C3 8.34 3 7.68 3 7 C2.01 6.67 1.02 6.34 0 6 C0 4.02 0 2.04 0 0 Z " fill="#002E7B" transform="translate(15,50)"/>
<path d="M0 0 C1.32 0.99 2.64 1.98 4 3 C3.01 3.33 2.02 3.66 1 4 C0.67 4.66 0.34 5.32 0 6 C-0.99 5.67 -1.98 5.34 -3 5 C-2.01 3.35 -1.02 1.7 0 0 Z " fill="#17EBF6" transform="translate(35,50)"/>
</svg>
